<svg xmlns="http://www.w3.org/2000/svg" viewBox="0 0 500 500"><g id="freepik--background-simple--inject-164"><path d="M386.46,129.32a210.46,210.46,0,0,0-10.86-19C329.49,40,206,1.75,144.8,74.43c-14.58,17.32-19.67,38.25-29.48,58.12-22.33,45.19-64,72.2-90.2,114C4.84,279,7.55,320.59,18.86,355.65c12.29,38.1,33.92,64.71,68.52,84.94,38.78,22.68,80.27,16.38,122.19,8.49,18.86-3.55,38.3-7.17,57.58-5.82,24.14,1.7,48,8.53,71.91,11.85,24.91,3.46,50.75,4.27,74.74-3.25,76.83-24.1,95-137,63.44-201.74-11.19-22.9-30.14-40.56-47.74-58.49C410.5,172.28,398.85,153.35,386.46,129.32Z" style="fill:#92E3A9"></path><path d="M386.46,129.32a210.46,210.46,0,0,0-10.86-19C329.49,40,206,1.75,144.8,74.43c-14.58,17.32-19.67,38.25-29.48,58.12-22.33,45.19-64,72.2-90.2,114C4.84,279,7.55,320.59,18.86,355.65c12.29,38.1,33.92,64.71,68.52,84.94,38.78,22.68,80.27,16.38,122.19,8.49,18.86-3.55,38.3-7.17,57.58-5.82,24.14,1.7,48,8.53,71.91,11.85,24.91,3.46,50.75,4.27,74.74-3.25,76.83-24.1,95-137,63.44-201.74-11.19-22.9-30.14-40.56-47.74-58.49C410.5,172.28,398.85,153.35,386.46,129.32Z" style="fill:#fff;opacity:0.8"></path></g><g id="freepik--Floor--inject-164"><ellipse cx="250.58" cy="432.36" rx="223.05" ry="26.18" style="fill:#263238"></ellipse></g><g id="freepik--Plants--inject-164"><path d="M40.69,273.83c3-2.4,6.9-10.14,6.9-10.14s-5.88-1-6.25-1c-4.4-.18-13,2.06-14.71,6.68a5.84,5.84,0,0,0,4.27,7.56C34.27,277.77,38.12,275.88,40.69,273.83Z" style="fill:#92E3A9"></path><path d="M64.23,282.92c2.19-3,3.82-10.86,4-11.49a103.21,103.21,0,0,0,13.64,1.93c2.67.21,5.36.34,8.07.44-1.24.14-2.35.27-2.51.31-4.28,1-12,5.41-12.41,10.32a5.82,5.82,0,0,0,6.11,6.16c3.48,0,6.69-2.89,8.63-5.54s3.5-9.37,3.88-11.15c1,0,2.07.07,3.11.09,5,.11,10,.19,14.82.43,1.72.08,3.41.22,5.1.36-1.11.13-2,.24-2.17.27-4.29,1-12,5.42-12.42,10.33a5.84,5.84,0,0,0,6.11,6.16c3.48-.06,6.69-2.89,8.63-5.55s3.35-8.72,3.81-10.82c1.73.19,3.46.38,5.12.64,1.13.21,2.24.33,3.36.6l3.33.73c2.09.54,4.26,1.08,6.29,1.66,1.42.39,2.76.79,4.12,1.18-1.71-.1-5.06-.22-5.34-.2-4.39.32-12.68,3.53-13.84,8.32a5.84,5.84,0,0,0,5.11,7c3.45.47,7.05-1.85,9.37-4.18,2.55-2.56,5.29-9.78,5.62-10.69,2.24.67,4.41,1.34,6.45,2,1.83.59,3.55,1.17,5.19,1.74l1.45-2.73c-1.82-.58-3.73-1.18-5.77-1.8-2.27-.68-4.71-1.37-7.22-2a64.3,64.3,0,0,0,.35-7.44c3.6-1,9.45-5.16,10.2-5.71,1.5,1.79,2.94,3.54,4.27,5.22.92,1.15,1.8,2.27,2.63,3.35l1.53-2.89c-.61-.75-1.24-1.52-1.9-2.3-1.51-1.83-3.17-3.75-4.88-5.7.6-.73,5.51-6.71,6.46-10.21.86-3.17,1.08-7.45-1-10.2a5.82,5.82,0,0,0-8.63-.93c-3.57,3.39-2.22,12.18-.32,16.14.12.24,1.62,2.64,2.59,4.14-.7-.8-1.38-1.57-2.12-2.38-1.44-1.61-2.94-3.18-4.53-4.87L146,251.24c-.79-.81-1.73-1.57-2.6-2.37-2.06-1.81-4.24-3.54-6.47-5.24,1.41-1.27,6.34-5.85,7.67-8.87s2.2-7.21.51-10.25a5.83,5.83,0,0,0-8.39-2.22c-4.05,2.81-4,11.7-2.76,15.91.08.26,1.34,3.18,2.06,4.76-1.34-1-2.69-2-4.08-3-4-2.82-8.21-5.55-12.36-8.3-1.27-.84-2.52-1.69-3.79-2.54.51-.45,6.49-5.77,8-9.15,1.33-3,2.19-7.2.5-10.24a5.84,5.84,0,0,0-8.39-2.23c-4,2.82-4,11.7-2.76,15.91.1.32,1.92,4.51,2.43,5.56-2.77-1.87-5.52-3.76-8.16-5.73a103.59,103.59,0,0,1-10.17-8.6c.24-.21,6.5-5.74,8-9.2,1.33-3,2.19-7.2.5-10.24A5.83,5.83,0,0,0,97.37,193c-4,2.81-4,11.7-2.76,15.91.1.33,2.06,4.84,2.48,5.63-.19-.18-.4-.34-.58-.52A75.9,75.9,0,0,1,88,203.67c-1.41-2-2.65-4-3.81-6,1.27-.91,7-5.13,8.77-8.09s3-6.92,1.62-10.13a5.82,5.82,0,0,0-8.09-3.13c-4.33,2.35-5.3,11.18-4.49,15.51,0,.23.76,2.57,1.3,4.27-.51-.9-1-1.82-1.52-2.7-1.78-3.27-3.21-6.38-4.45-9.14-.69-1.58-1.29-3-1.83-4.37.78-1.54,3.86-7.81,4-11.17S79,161.2,76.34,159a5.84,5.84,0,0,0-8.63.95c-2.76,4.08.45,12.37,3.16,15.84.24.29,4.45,4.55,4.49,4.47l0-.09c.5,1.31,1,2.71,1.68,4.23,1.18,2.8,2.54,5.95,4.26,9.27a101.91,101.91,0,0,0,6,10.47,74.71,74.71,0,0,0,8.35,10.64s.08.07.11.11c-1.26-.7-4.86-2.53-5.15-2.64-4.12-1.54-13-2.1-16,1.76a5.83,5.83,0,0,0,1.7,8.51c2.93,1.88,7.17,1.28,10.25.14,3.48-1.29,9.18-6.95,9.64-7.4a102.35,102.35,0,0,0,10.31,9.13c2.11,1.65,4.28,3.24,6.49,4.82l-2.26-1.13c-4.12-1.54-13-2.1-16,1.76a5.84,5.84,0,0,0,1.7,8.52c2.93,1.87,7.17,1.27,10.25.13s8.09-5.89,9.39-7.15l2.54,1.78c4.1,2.84,8.19,5.66,12.13,8.54,1.39,1,2.71,2.06,4.05,3.11-1-.5-1.83-.92-2-1-4.12-1.54-13-2.1-16,1.76a5.83,5.83,0,0,0,1.7,8.51c2.93,1.88,7.17,1.28,10.25.14s7.61-5.43,9.15-6.93c1.34,1.11,2.67,2.22,3.91,3.36.83.8,1.69,1.51,2.48,2.36l2.37,2.44c1.45,1.6,3,3.25,4.34,4.85,1,1.11,1.86,2.18,2.77,3.26-1.37-1-4.09-3-4.33-3.11a22.68,22.68,0,0,0-11.16-2.48,7.34,7.34,0,0,0-1.18-.53,5.83,5.83,0,0,0-7.71,4c-1.11,4.8,4.87,11.38,8.64,13.63.23.14,2.81,1.31,4.45,2-1-.28-2-.55-3.09-.82-2.09-.55-4.2-1-6.46-1.56l-3.34-.65c-1.11-.24-2.32-.36-3.49-.54-2.71-.37-5.48-.62-8.28-.81.47-1.83,2.06-8.38,1.51-11.63s-2.15-7.22-5.23-8.82a5.83,5.83,0,0,0-8.23,2.77c-1.82,4.57,3.08,12,6.48,14.79.21.17,2.87,1.91,4.35,2.84-1.68-.1-3.36-.21-5.07-.25-4.92-.13-9.91-.11-14.88-.11l-4.56,0c.17-.65,2.22-8.39,1.61-12-.55-3.24-2.15-7.22-5.23-8.83a5.84,5.84,0,0,0-8.23,2.78c-1.82,4.57,3.09,12,6.48,14.79.25.21,4.09,2.7,5.09,3.29-3.35,0-6.68-.08-10-.28a100.74,100.74,0,0,1-13.23-1.56c.09-.3,2.26-8.37,1.63-12.1-.54-3.24-2.14-7.22-5.23-8.82a5.82,5.82,0,0,0-8.22,2.77c-1.83,4.57,3.08,12,6.47,14.79.27.22,4.39,2.9,5.17,3.33-.25-.05-.52-.07-.77-.12A74.6,74.6,0,0,1,55,266.3c-2.29-.9-4.43-1.89-6.49-2.9.56-1.46,3.05-8.16,2.85-11.59-.19-3.28-1.34-7.41-4.23-9.34a5.83,5.83,0,0,0-8.48,1.85c-2.31,4.35,1.75,12.25,4.81,15.41.17.17,2.06,1.73,3.45,2.85-.93-.47-1.89-.94-2.76-1.41-3.29-1.75-6.2-3.55-8.76-5.17-1.45-.94-2.74-1.81-3.93-2.64-.2-1.72-1.09-8.64-2.81-11.53s-4.6-6-8.06-6.35A5.83,5.83,0,0,0,13.89,241c-.05,4.93,7.19,10.07,11.37,11.47.36.12,6.22,1.35,6.21,1.26v-.1c1.13.82,2.37,1.68,3.73,2.6,2.53,1.68,5.4,3.56,8.66,5.38a103.85,103.85,0,0,0,10.82,5.41,76.6,76.6,0,0,0,12.83,4.26l.16,0c-1.44.11-5.45.57-5.76.64-4.29,1-12,5.41-12.41,10.32a5.82,5.82,0,0,0,6.11,6.16C59.08,288.41,62.29,285.57,64.23,282.92Z" style="fill:#92E3A9"></path><path d="M83.32,197.41c.08,0-4.34-4.08-4.65-4.31-3.56-2.57-12-5.45-15.94-2.54a5.83,5.83,0,0,0-.61,8.66c2.33,2.58,6.58,3.13,9.85,2.84C75.82,201.72,83.32,197.41,83.32,197.41Z" style="fill:#92E3A9"></path><path d="M476.88,265.73c-3.8-.65-10.94-5.54-10.94-5.55s4.65-3.72,5-3.92c3.76-2.28,12.37-4.48,16.1-1.26a5.84,5.84,0,0,1-.09,8.68C484.4,266.07,480.12,266.27,476.88,265.73Z" style="fill:#92E3A9"></path><path d="M460.67,285.06c-3.36-1.56-8.6-7.66-9-8.14a104,104,0,0,1-11,8.27c-2.24,1.48-4.53,2.9-6.85,4.29,1.15-.48,2.19-.9,2.34-.94,4.23-1.21,13.11-1.06,15.85,3a5.83,5.83,0,0,1-2.37,8.35c-3.07,1.63-7.25.7-10.23-.69s-7.59-6.51-8.79-7.88c-.89.52-1.78,1.06-2.68,1.58-4.3,2.5-8.61,5-12.76,7.54-1.47.9-2.88,1.84-4.29,2.78,1-.43,1.89-.77,2-.81,4.23-1.21,13.12-1.06,15.86,3a5.83,5.83,0,0,1-2.37,8.35c-3.07,1.64-7.25.7-10.24-.68s-7.14-6-8.56-7.64c-1.42,1-2.84,2-4.17,3-.89.73-1.8,1.37-2.65,2.15l-2.57,2.24c-1.57,1.49-3.21,3-4.7,4.5-1.06,1-2,2-3,3,1.44-.92,4.31-2.65,4.57-2.76,4-1.84,12.8-3,16.14.59a5.84,5.84,0,0,1-1.09,8.62c-2.78,2.08-7.06,1.79-10.21.87-3.48-1-9.36-6-10.09-6.64-1.64,1.66-3.22,3.3-4.68,4.86s-2.54,2.75-3.71,4l-2.58-1.69q1.95-2.08,4.18-4.36c1.66-1.7,3.46-3.48,5.33-5.29a63.26,63.26,0,0,1-3.91-6.34c-3.6.9-10.76,0-11.68-.08-.45,2.29-.87,4.53-1.22,6.64-.25,1.46-.48,2.85-.69,4.2l-2.73-1.79c.17-.95.35-1.92.55-2.93.44-2.33,1-4.81,1.52-7.35-.88-.35-8.07-3.21-10.59-5.81-2.29-2.36-4.55-6-4-9.44a5.83,5.83,0,0,1,7.1-5c4.77,1.25,7.84,9.59,8.08,14,0,.26-.14,3.09-.26,4.88.23-1,.45-2.05.7-3.12.49-2.1,1-4.19,1.62-6.44.32-1.08.64-2.17,1-3.27s.76-2.21,1.13-3.34c.93-2.58,2-5.14,3.13-7.71-1.85-.43-8.38-2.06-11-4.06s-5.4-5.24-5.39-8.72a5.84,5.84,0,0,1,6.27-6c4.9.51,9.19,8.29,10.1,12.6.06.27.37,3.43.5,5.17.69-1.54,1.38-3.07,2.13-4.6,2.16-4.43,4.5-8.83,6.8-13.24.71-1.35,1.4-2.7,2.09-4.06-.66-.14-8.46-1.91-11.41-4.15-2.62-2-5.4-5.24-5.39-8.72a5.82,5.82,0,0,1,6.26-6c4.91.5,9.2,8.28,10.11,12.59.07.32.5,4.88.56,6,1.52-3,3-6,4.37-9a101.65,101.65,0,0,0,4.75-12.45c-.31-.07-8.46-1.88-11.48-4.17-2.62-2-5.4-5.24-5.39-8.72a5.82,5.82,0,0,1,6.26-6c4.91.5,9.2,8.29,10.11,12.59.07.34.54,5.24.56,6.13.07-.25.18-.5.25-.74a75.1,75.1,0,0,0,2.42-13.13c.27-2.45.38-4.8.44-7.1-1.56-.18-8.64-1.09-11.59-2.85s-5.94-4.62-6.32-8.08a5.83,5.83,0,0,1,5.57-6.65c4.93,0,10.05,7.23,11.43,11.41.08.22.58,2.62.93,4.37,0-1,0-2.11,0-3.1,0-3.73-.28-7.14-.53-10.16-.16-1.71-.33-3.26-.51-4.71-1.43-1-7.15-5-8.92-7.83s-3.14-6.84-1.88-10.08a5.82,5.82,0,0,1,8-3.34c4.39,2.24,5.58,11,4.88,15.39-.06.37-1.68,6.14-1.76,6.09l-.08-.06c.2,1.39.39,2.88.58,4.51.31,3,.64,6.44.75,10.18a103.62,103.62,0,0,1-.23,12.08,75.81,75.81,0,0,1-2.17,13.35s0,.1,0,.15c.76-1.22,3-4.57,3.23-4.8,2.86-3.34,10.36-8.12,14.9-6.22a5.82,5.82,0,0,1,2.63,8.27c-1.66,3.06-5.66,4.59-8.91,5.08-3.67.55-11.4-1.65-12-1.82a104.46,104.46,0,0,1-4.62,13c-1.05,2.46-2.18,4.91-3.35,7.35.7-1,1.33-2,1.44-2.07,2.86-3.35,10.35-8.12,14.9-6.22a5.83,5.83,0,0,1,2.62,8.27c-1.65,3.06-5.66,4.59-8.91,5.08s-9.92-1.25-11.67-1.73c-.46.93-.91,1.87-1.37,2.8-2.21,4.46-4.44,8.9-6.49,13.33-.72,1.56-1.38,3.12-2,4.68.62-.92,1.16-1.69,1.25-1.8,2.86-3.34,10.35-8.12,14.9-6.22a5.84,5.84,0,0,1,2.63,8.28c-1.66,3.05-5.67,4.58-8.92,5.07S381,290,379,289.43c-.62,1.62-1.26,3.24-1.79,4.84-.35,1.09-.75,2.13-1,3.25s-.6,2.2-.9,3.28c-.49,2.11-1,4.28-1.45,6.35-.31,1.44-.58,2.81-.85,4.2.7-1.56,2.14-4.59,2.29-4.83a22.67,22.67,0,0,1,8.57-7.56,6.9,6.9,0,0,1,.77-1,5.84,5.84,0,0,1,8.68-.24c3.29,3.67,1.24,12.32-1,16.12-.13.22-1.82,2.5-2.91,3.92.77-.74,1.51-1.46,2.31-2.21,1.57-1.49,3.18-2.93,4.91-4.49l2.61-2.18c.85-.75,1.85-1.43,2.78-2.16,2.2-1.64,4.51-3.2,6.86-4.71-1.3-1.38-5.85-6.34-6.94-9.46s-1.61-7.35.32-10.25a5.83,5.83,0,0,1,8.54-1.55c3.81,3.13,3.09,12,1.48,16.08-.1.26-1.59,3.06-2.44,4.59,1.42-.9,2.84-1.81,4.31-2.67,4.25-2.49,8.63-4.88,13-7.29,1.33-.73,2.66-1.48,4-2.22-.47-.49-6-6.27-7.23-9.76-1.08-3.1-1.61-7.36.32-10.25a5.82,5.82,0,0,1,8.54-1.55c3.81,3.12,3.09,12,1.48,16.08-.12.3-2.27,4.34-2.87,5.34,2.92-1.64,5.81-3.3,8.6-5.06a104.19,104.19,0,0,0,10.82-7.76c-.22-.23-6-6.24-7.28-9.81-1.08-3.1-1.61-7.36.32-10.25a5.82,5.82,0,0,1,8.54-1.55c3.81,3.12,3.09,12,1.48,16.08-.13.32-2.44,4.66-2.92,5.42.2-.17.43-.32.62-.48a75.9,75.9,0,0,0,9.27-9.62c1.57-1.89,3-3.8,4.27-5.68-1.19-1-6.6-5.67-8.09-8.76s-2.4-7.14-.81-10.23a5.83,5.83,0,0,1,8.32-2.48c4.13,2.69,4.39,11.58,3.23,15.82-.06.23-1,2.51-1.63,4.16.58-.86,1.19-1.73,1.73-2.57,2-3.12,3.71-6.1,5.16-8.76.82-1.52,1.53-2.9,2.18-4.21-.66-1.6-3.23-8.09-3.12-11.45s1.15-7.44,4-9.45a5.82,5.82,0,0,1,8.52,1.63c2.43,4.29-1.43,12.3-4.41,15.53-.26.28-4.79,4.19-4.83,4.11l0-.1c-.6,1.27-1.26,2.63-2,4.09-1.41,2.69-3,5.72-5,8.9a103.9,103.9,0,0,1-6.86,10,74.85,74.85,0,0,1-9.17,9.94l-.12.1c1.31-.59,5.05-2.13,5.35-2.22,4.23-1.21,13.11-1.06,15.85,3a5.82,5.82,0,0,1-2.37,8.34C467.83,287.38,463.65,286.44,460.67,285.06Z" style="fill:#92E3A9"></path><path d="M402.62,219.43c-.09,0,1.83-5.67,2-6,1.88-4,7.84-10.57,12.73-9.93a5.82,5.82,0,0,1,4.72,7.28c-.79,3.39-4.25,5.92-7.26,7.25C411.27,219.58,402.62,219.43,402.62,219.43Z" style="fill:#92E3A9"></path><path d="M96.41,154.49c1.65-.87,4.19-4.22,4.2-4.22s-2.72-1-2.9-1c-2.08-.48-6.38-.18-7.6,1.87a2.82,2.82,0,0,0,1.36,4C93,155.8,95,155.24,96.41,154.49Z" style="fill:#92E3A9"></path><path d="M106.82,160.93c1.31-1.23,2.8-4.84,2.91-5.13a50.2,50.2,0,0,0,6.34,2.14c1.25.34,2.52.64,3.8.93-.6-.05-1.14-.08-1.22-.08-2.13.09-6.2,1.51-6.84,3.82a2.83,2.83,0,0,0,2.37,3.48c1.66.29,3.44-.78,4.61-1.87s2.5-4.16,2.84-5l1.48.32c2.36.49,4.72,1,7,1.52.81.19,1.6.41,2.39.63-.53,0-1-.07-1.06-.06-2.13.08-6.2,1.51-6.84,3.81A2.84,2.84,0,0,0,127,169c1.66.28,3.44-.79,4.61-1.88s2.37-3.86,2.78-4.82c.81.24,1.61.49,2.38.76.52.2,1,.36,1.55.59l1.52.64c1,.44,1.94.9,2.86,1.35l1.85.94c-.8-.2-2.39-.56-2.52-.58-2.12-.23-6.36.56-7.34,2.74a2.82,2.82,0,0,0,1.81,3.8c1.6.53,3.52-.25,4.84-1.16s3.39-4.19,3.63-4.59c1,.52,2,1,2.9,1.53s1.59.87,2.32,1.29l.93-1.17c-.81-.45-1.67-.9-2.59-1.38s-2.12-1.07-3.26-1.62a30.63,30.63,0,0,0,.83-3.51,21.27,21.27,0,0,0,5.38-1.82c.55,1,1.08,2,1.57,2.87.33.63.65,1.24.95,1.83l1-1.24c-.22-.41-.46-.83-.7-1.27-.56-1-1.18-2.06-1.82-3.15.35-.29,3.23-2.71,4-4.29s1.18-3.46.41-5a2.82,2.82,0,0,0-4-1.21c-2,1.3-2.15,5.61-1.59,7.67,0,.12.53,1.4.86,2.2-.26-.44-.52-.87-.8-1.32-.54-.9-1.11-1.78-1.73-2.73l-.94-1.35c-.3-.46-.69-.91-1-1.37-.82-1-1.7-2.07-2.61-3.07.78-.48,3.54-2.23,4.45-3.55s1.68-3.24,1.15-4.84a2.82,2.82,0,0,0-3.8-1.81c-2.18,1-3,5.22-2.74,7.34,0,.13.36,1.64.56,2.46-.55-.6-1.1-1.21-1.68-1.8-1.67-1.71-3.42-3.38-5.15-5.06l-1.58-1.55c.28-.17,3.61-2.17,4.62-3.65.91-1.31,1.69-3.24,1.16-4.84a2.82,2.82,0,0,0-3.8-1.81c-2.18,1-3,5.22-2.74,7.34,0,.16.51,2.32.66,2.87-1.15-1.14-2.3-2.29-3.38-3.46a49.7,49.7,0,0,1-4.08-5c.13-.08,3.61-2.16,4.65-3.67.9-1.31,1.69-3.24,1.16-4.84a2.83,2.83,0,0,0-3.81-1.81c-2.18,1-3,5.22-2.73,7.34,0,.17.55,2.49.68,2.91-.07-.1-.16-.2-.23-.31a37,37,0,0,1-3.12-5.67c-.49-1.09-.9-2.16-1.28-3.21.69-.32,3.81-1.81,4.9-3.07s2-3,1.68-4.69a2.84,2.84,0,0,0-3.58-2.22c-2.27.74-3.53,4.87-3.52,7,0,.12.13,1.3.24,2.16-.17-.48-.34-1-.49-1.43-.56-1.72-1-3.33-1.31-4.75-.19-.82-.34-1.56-.48-2.25.51-.67,2.54-3.38,2.92-5s.4-3.63-.67-4.93a2.84,2.84,0,0,0-4.2-.32c-1.68,1.7-.89,5.94.09,7.84.09.16,1.72,2.57,1.74,2.53l0,0c.12.67.26,1.39.42,2.17.32,1.44.69,3.06,1.21,4.8a49.13,49.13,0,0,0,1.94,5.53,36.47,36.47,0,0,0,3,5.82l0,.06c-.54-.44-2.09-1.64-2.22-1.72-1.83-1.1-6-2.16-7.81-.59a2.82,2.82,0,0,0,0,4.21c1.23,1.16,3.31,1.25,4.88,1,1.77-.3,5-2.49,5.25-2.67a50.1,50.1,0,0,0,4.11,5.28c.85,1,1.75,1.93,2.66,2.87-.48-.37-.91-.7-1-.73-1.82-1.11-6-2.17-7.81-.6a2.83,2.83,0,0,0,.05,4.21c1.23,1.16,3.31,1.25,4.88,1s4.38-2.08,5.11-2.57L137.2,142c1.7,1.72,3.4,3.42,5,5.15.57.61,1.11,1.23,1.65,1.84-.42-.32-.78-.6-.84-.63-1.83-1.11-6-2.16-7.81-.6a2.84,2.84,0,0,0,.05,4.22c1.23,1.15,3.3,1.24,4.88,1s4.11-1.91,5-2.48c.53.65,1.07,1.3,1.56,1.95.33.45.67.87,1,1.34l.92,1.38c.54.89,1.12,1.81,1.63,2.7.36.62.7,1.21,1,1.8-.56-.61-1.68-1.78-1.79-1.87a10.89,10.89,0,0,0-5.1-2.17,3,3,0,0,0-.51-.36,2.83,2.83,0,0,0-4,1.21c-1,2.19,1.3,5.86,2.9,7.27.1.09,1.22.88,1.94,1.36l-1.4-.66c-.95-.45-1.91-.86-2.94-1.32l-1.54-.61c-.51-.21-1.07-.37-1.61-.57-1.26-.42-2.56-.78-3.88-1.12.39-.83,1.73-3.81,1.76-5.41s-.38-3.64-1.71-4.68a2.83,2.83,0,0,0-4.17.59c-1.28,2,.4,6,1.77,7.63.08.1,1.2,1.17,1.82,1.74-.79-.19-1.58-.39-2.39-.57-2.34-.5-4.72-.93-7.09-1.38-.73-.13-1.45-.28-2.17-.42.14-.29,1.81-3.8,1.84-5.59,0-1.6-.38-3.64-1.71-4.68a2.83,2.83,0,0,0-4.17.59c-1.28,2,.4,6,1.77,7.63.1.13,1.71,1.66,2.13,2-1.59-.31-3.17-.64-4.72-1a51,51,0,0,1-6.17-1.93c.06-.14,1.82-3.79,1.85-5.63,0-1.59-.38-3.63-1.7-4.67a2.83,2.83,0,0,0-4.17.59c-1.28,2,.4,6,1.76,7.63.11.13,1.84,1.77,2.17,2l-.35-.13a36.52,36.52,0,0,1-5.74-3c-1-.64-1.94-1.3-2.83-2,.39-.64,2.18-3.62,2.39-5.27s0-3.65-1.19-4.83a2.81,2.81,0,0,0-4.2.13c-1.5,1.86-.26,6,.92,7.77.06.1.82,1,1.38,1.67l-1.19-.92c-1.41-1.13-2.63-2.25-3.71-3.25-.61-.57-1.14-1.1-1.64-1.6.06-.84.25-4.22-.31-5.76s-1.67-3.25-3.28-3.74a2.84,2.84,0,0,0-3.68,2.05c-.46,2.35,2.54,5.45,4.4,6.48.17.09,2.85,1.2,2.85,1.16v0c.47.49,1,1,1.54,1.57,1.06,1,2.26,2.18,3.66,3.34a48.63,48.63,0,0,0,4.67,3.54,36.21,36.21,0,0,0,5.74,3.18l.07,0c-.69-.07-2.65-.21-2.8-.21-2.13.09-6.2,1.51-6.84,3.82a2.82,2.82,0,0,0,2.36,3.48C103.88,163.09,105.66,162,106.82,160.93Z" style="fill:#92E3A9"></path><path d="M123.56,121.85s-1.71-2.33-1.83-2.47c-1.48-1.54-5.23-3.67-7.38-2.63a2.82,2.82,0,0,0-1.06,4.07c.88,1.44,2.86,2.08,4.44,2.24C119.6,123.24,123.56,121.85,123.56,121.85Z" style="fill:#92E3A9"></path><path d="M431.66,150.7c-1.78-.58-4.85-3.44-4.85-3.45s2.5-1.45,2.67-1.52c2-.83,6.25-1.27,7.81.55a2.82,2.82,0,0,1-.66,4.15C435.25,151.4,433.18,151.19,431.66,150.7Z" style="fill:#92E3A9"></path><path d="M422.5,158.82c-1.5-1-3.58-4.29-3.74-4.56a50.06,50.06,0,0,1-5.88,3.19c-1.17.55-2.38,1.06-3.59,1.57l1.19-.29c2.12-.28,6.37.43,7.39,2.59a2.83,2.83,0,0,1-1.73,3.84c-1.59.56-3.53-.18-4.86-1.06s-3.18-3.67-3.66-4.41l-1.4.57c-2.24.89-4.49,1.77-6.66,2.7-.77.33-1.51.68-2.26,1l1-.25c2.11-.27,6.37.43,7.39,2.6a2.82,2.82,0,0,1-1.74,3.83c-1.59.57-3.53-.18-4.86-1.06s-3-3.4-3.56-4.27c-.76.38-1.51.75-2.22,1.16-.48.28-1,.52-1.43.84l-1.39.89c-.86.6-1.75,1.22-2.58,1.82-.58.42-1.12.83-1.67,1.24.76-.34,2.26-1,2.39-1,2.05-.6,6.37-.54,7.7,1.44a2.83,2.83,0,0,1-1.13,4.06c-1.49.79-3.52.35-5-.31s-4.06-3.56-4.36-3.91c-.91.68-1.78,1.35-2.6,2s-1.41,1.13-2.06,1.67l-1.12-1c.72-.57,1.49-1.17,2.32-1.79s1.91-1.42,2.93-2.16a32.55,32.55,0,0,1-1.42-3.32,20.67,20.67,0,0,1-5.6-.87c-.38,1.07-.74,2.11-1.06,3.1l-.63,2-1.18-1c.15-.45.3-.9.47-1.37.38-1.08.81-2.24,1.26-3.42-.4-.23-3.65-2.11-4.67-3.54s-1.75-3.21-1.25-4.82a2.82,2.82,0,0,1,3.76-1.88c2.2.93,3.08,5.16,2.88,7.28,0,.13-.29,1.48-.47,2.32.18-.48.36-1,.56-1.44.38-1,.79-1.94,1.23-3,.23-.49.47-1,.7-1.5s.52-1,.78-1.52c.63-1.17,1.33-2.33,2.06-3.47-.86-.34-3.88-1.59-5-2.74s-2.21-2.9-2-4.57a2.83,2.83,0,0,1,3.44-2.43c2.31.59,3.82,4.63,4,6.76,0,.13-.07,1.67-.13,2.52.44-.69.88-1.38,1.34-2.06,1.36-2,2.79-3.91,4.22-5.86l1.29-1.8c-.31-.12-3.93-1.52-5.18-2.81s-2.22-2.9-2-4.57a2.82,2.82,0,0,1,3.43-2.43c2.32.59,3.82,4.63,3.95,6.76,0,.16-.11,2.38-.16,2.94.94-1.32,1.87-2.64,2.74-4a50.14,50.14,0,0,0,3.16-5.63c-.14-.05-3.92-1.51-5.21-2.82-1.11-1.14-2.21-2.9-2-4.57a2.83,2.83,0,0,1,3.44-2.43c2.31.59,3.82,4.63,3.95,6.76,0,.17-.12,2.55-.18,3a3.65,3.65,0,0,0,.18-.34,36.68,36.68,0,0,0,2.1-6.12c.3-1.16.52-2.28.72-3.38-.74-.2-4.07-1.14-5.36-2.19s-2.52-2.65-2.45-4.33a2.83,2.83,0,0,1,3.14-2.8c2.37.34,4.31,4.19,4.67,6.29,0,.12.09,1.3.13,2.17.08-.5.17-1,.24-1.49.25-1.79.38-3.44.47-4.91.05-.83.08-1.59.1-2.29-.62-.57-3.08-2.9-3.72-4.4s-1-3.51-.19-5a2.82,2.82,0,0,1,4.08-1c1.95,1.39,1.9,5.7,1.25,7.73-.06.18-1.25,2.83-1.28,2.8l0,0c0,.68,0,1.41,0,2.21-.07,1.47-.15,3.13-.37,4.94a50.15,50.15,0,0,1-1,5.78,37,37,0,0,1-2,6.25l0,.07c.46-.53,1.78-2,1.9-2.07,1.61-1.4,5.55-3.16,7.59-1.92a2.83,2.83,0,0,1,.67,4.15c-1,1.35-3,1.8-4.64,1.8-1.8,0-5.35-1.6-5.63-1.73a51.69,51.69,0,0,1-3.14,5.9c-.68,1.11-1.4,2.2-2.14,3.29.41-.45.78-.85.84-.9,1.61-1.4,5.55-3.15,7.59-1.91a2.81,2.81,0,0,1,.67,4.15c-1,1.35-3,1.8-4.64,1.8s-4.67-1.3-5.48-1.66c-.28.41-.56.83-.85,1.24-1.38,2-2.77,4-4.07,5.94-.46.69-.88,1.4-1.31,2.1l.72-.78c1.62-1.39,5.56-3.15,7.6-1.91a2.83,2.83,0,0,1,.67,4.15c-1,1.35-3.05,1.8-4.64,1.8s-4.38-1.18-5.33-1.6c-.42.73-.84,1.47-1.21,2.19-.24.51-.51,1-.73,1.49l-.66,1.51c-.39,1-.8,2-1.15,3-.25.66-.48,1.3-.71,1.95.45-.7,1.35-2,1.44-2.15a11.1,11.1,0,0,1,4.65-3,3.73,3.73,0,0,1,.45-.44,2.83,2.83,0,0,1,4.18.51c1.32,2-.28,6-1.62,7.66-.08.1-1.05,1.07-1.68,1.67l1.27-.89c.86-.6,1.73-1.18,2.67-1.8l1.41-.87c.47-.29,1-.55,1.49-.83,1.17-.63,2.39-1.21,3.63-1.77-.52-.76-2.35-3.46-2.65-5s-.25-3.65.88-4.9a2.83,2.83,0,0,1,4.21-.14c1.6,1.78.63,6-.44,7.83-.07.11-1,1.35-1.5,2,.75-.33,1.5-.66,2.26-1,2.22-.89,4.49-1.72,6.75-2.57.7-.25,1.38-.52,2.07-.78-.19-.27-2.43-3.44-2.77-5.2-.3-1.57-.25-3.64.88-4.9a2.83,2.83,0,0,1,4.21-.13c1.61,1.77.63,6-.44,7.82-.08.14-1.4,1.92-1.75,2.36,1.51-.58,3-1.17,4.48-1.81a51.7,51.7,0,0,0,5.75-3c-.09-.13-2.44-3.43-2.79-5.23-.3-1.57-.25-3.65.89-4.9a2.82,2.82,0,0,1,4.2-.13c1.61,1.77.63,6-.44,7.82-.08.15-1.5,2.06-1.78,2.39l.33-.18a36.77,36.77,0,0,0,5.13-4c.89-.8,1.7-1.62,2.46-2.42-.5-.57-2.76-3.2-3.26-4.79s-.64-3.6.35-5a2.82,2.82,0,0,1,4.16-.6c1.79,1.59,1.28,5.87.43,7.82,0,.11-.64,1.14-1.09,1.88.34-.37.7-.75,1-1.11,1.2-1.35,2.21-2.66,3.1-3.83.5-.67.94-1.29,1.35-1.87-.2-.81-1-4.11-.68-5.72s1.08-3.48,2.59-4.25a2.83,2.83,0,0,1,4,1.4c.86,2.23-1.56,5.8-3.23,7.14-.14.11-2.59,1.66-2.61,1.62v0c-.38.57-.79,1.17-1.25,1.82-.87,1.19-1.86,2.53-3,3.91a50.13,50.13,0,0,1-4,4.29,37.32,37.32,0,0,1-5.11,4.11l-.07,0c.67-.19,2.57-.66,2.72-.68,2.12-.28,6.37.43,7.4,2.59a2.84,2.84,0,0,1-1.74,3.84C425.77,160.44,423.83,159.69,422.5,158.82Z" style="fill:#92E3A9"></path><path d="M399.33,123.17s1.29-2.59,1.39-2.74c1.19-1.78,4.52-4.51,6.82-3.86a2.83,2.83,0,0,1,1.74,3.84c-.62,1.57-2.46,2.53-4,3C403.48,123.86,399.34,123.17,399.33,123.17Z" style="fill:#92E3A9"></path><path d="M432.5,385.52c-1-1.58-1.61-5.73-1.61-5.74s2.86.45,3,.5c2.05.6,5.66,3,5.72,5.35a2.82,2.82,0,0,1-3.13,2.81C434.84,388.32,433.36,386.85,432.5,385.52Z" style="fill:#92E3A9"></path><path d="M420.27,386.06c-.55-1.72-.08-5.59,0-5.9a49.78,49.78,0,0,1-6.57-1.22q-1.89-.48-3.78-1.05c.55.26,1,.49,1.1.53,1.82,1.12,4.68,4.35,4.11,6.67a2.83,2.83,0,0,1-3.76,1.89c-1.59-.56-2.63-2.37-3.11-3.89s-.16-4.85-.06-5.72l-1.45-.44c-2.3-.72-4.6-1.45-6.88-2.1-.8-.23-1.6-.42-2.4-.62.49.23.9.42,1,.46,1.82,1.12,4.68,4.34,4.11,6.67a2.83,2.83,0,0,1-3.76,1.89c-1.59-.57-2.63-2.37-3.11-3.89s-.19-4.53-.08-5.57c-.82-.17-1.65-.35-2.45-.49-.55-.08-1.08-.2-1.64-.25l-1.64-.18c-1.05-.07-2.13-.16-3.15-.21l-2.08-.09c.8.22,2.36.68,2.49.73,2,.83,5.28,3.59,5.07,6a2.83,2.83,0,0,1-3.43,2.44c-1.66-.32-3-1.94-3.66-3.37s-.92-5.32-.94-5.79c-1.13,0-2.23-.06-3.27-.07h-2.66L378,371l2.93.07c1.15,0,2.38.1,3.64.17a29.48,29.48,0,0,1,1-3.47,20.79,20.79,0,0,1-3.81-4.21c-1,.59-1.9,1.18-2.77,1.74l-1.73,1.14-.26-1.57,1.23-.77c1-.6,2-1.23,3.13-1.86-.16-.43-1.5-3.94-1.39-5.69.09-1.59.66-3.6,2.06-4.53a2.82,2.82,0,0,1,4.11.91c1.12,2.11-.86,5.94-2.35,7.47-.09.09-1.15,1-1.83,1.5l1.34-.77c.92-.52,1.85-1,2.84-1.53l1.49-.73c.49-.25,1-.45,1.56-.68,1.23-.52,2.5-1,3.79-1.42-.45-.8-2-3.67-2.16-5.26s.1-3.65,1.35-4.79a2.82,2.82,0,0,1,4.2.27c1.43,1.92.05,6-1.19,7.75-.08.1-1.11,1.25-1.69,1.87.78-.26,1.55-.52,2.35-.75,2.29-.67,4.63-1.29,7-1.91l2.14-.58c-.17-.28-2.09-3.65-2.26-5.44-.14-1.59.11-3.65,1.36-4.79a2.83,2.83,0,0,1,4.2.28c1.42,1.91.05,6-1.2,7.74-.09.13-1.57,1.78-2,2.18,1.56-.43,3.12-.88,4.64-1.38a48.35,48.35,0,0,0,6-2.38c-.07-.13-2.1-3.64-2.27-5.47-.15-1.59.11-3.65,1.35-4.79a2.84,2.84,0,0,1,4.21.28c1.42,1.91.05,6-1.2,7.74-.09.13-1.69,1.91-2,2.21l.34-.16a35.77,35.77,0,0,0,5.49-3.43c1-.71,1.84-1.44,2.68-2.17-.44-.62-2.44-3.45-2.78-5.08s-.29-3.64.82-4.91a2.84,2.84,0,0,1,4.21-.19c1.63,1.75.71,6-.33,7.83-.06.1-.75,1.06-1.26,1.76.37-.34.76-.67,1.11-1,1.33-1.23,2.46-2.44,3.46-3.52.57-.62,1.06-1.19,1.52-1.73-.12-.83-.57-4.18-.12-5.76s1.41-3.36,3-4a2.84,2.84,0,0,1,3.82,1.78c.63,2.3-2.12,5.61-3.91,6.79-.15.1-2.74,1.41-2.75,1.36v-.05c-.43.53-.9,1.09-1.42,1.69-1,1.1-2.09,2.34-3.39,3.6a51.23,51.23,0,0,1-4.4,3.89,37.08,37.08,0,0,1-5.48,3.6l-.08,0c.69-.13,2.63-.41,2.78-.42,2.14-.07,6.3,1,7.11,3.29a2.83,2.83,0,0,1-2.1,3.65c-1.63.41-3.49-.52-4.73-1.52-1.4-1.13-3.15-4.61-3.29-4.89a49.76,49.76,0,0,1-6.15,2.6c-1.23.43-2.48.83-3.73,1.21.6-.09,1.13-.16,1.21-.16,2.13-.07,6.3,1,7.11,3.29a2.83,2.83,0,0,1-2.1,3.65c-1.64.41-3.49-.52-4.74-1.52s-2.8-4-3.2-4.75l-1.45.43c-2.32.67-4.64,1.33-6.9,2-.79.25-1.57.53-2.34.81l1-.15c2.13-.07,6.3,1.05,7.11,3.3a2.83,2.83,0,0,1-2.1,3.65c-1.64.41-3.5-.53-4.74-1.53s-2.65-3.67-3.13-4.6c-.79.31-1.57.61-2.32.94-.51.24-1,.44-1.5.7l-1.47.76c-.92.51-1.87,1-2.75,1.56l-1.78,1.07c.79-.26,2.34-.74,2.48-.76a11,11,0,0,1,5.51.59,3.38,3.38,0,0,1,.63-.07,2.83,2.83,0,0,1,2.92,3c-.23,2.38-4,4.48-6.08,4.93-.12,0-1.49.17-2.35.25l1.54.1c1.05.07,2.09.18,3.21.28l1.64.22c.55.06,1.12.19,1.69.29,1.3.25,2.62.56,3.93.91.07-.92.35-4.17,1.11-5.58s2.1-3,3.77-3.25a2.82,2.82,0,0,1,3.35,2.54c.13,2.39-3.27,5-5.26,5.8-.13.05-1.62.44-2.44.64.78.21,1.57.42,2.36.67,2.29.7,4.58,1.48,6.86,2.25l2.11.69c0-.33.27-4.2,1.12-5.78.75-1.41,2.1-3,3.77-3.25a2.83,2.83,0,0,1,3.35,2.55c.13,2.38-3.27,5-5.27,5.8-.15.05-2.29.61-2.85.72,1.55.51,3.09,1,4.63,1.42a48.72,48.72,0,0,0,6.32,1.32c0-.15.26-4.19,1.13-5.81.75-1.41,2.1-3,3.77-3.25a2.82,2.82,0,0,1,3.35,2.54c.13,2.39-3.27,5-5.26,5.81-.16.06-2.47.65-2.9.73.13,0,.25.05.38.06a37.25,37.25,0,0,0,6.47.17c1.19-.07,2.33-.19,3.43-.34,0-.75-.13-4.22.49-5.76s1.76-3.2,3.39-3.65a2.83,2.83,0,0,1,3.61,2.16c.39,2.36-2.7,5.37-4.59,6.35-.11.05-1.22.48-2,.77l1.49-.22c1.78-.29,3.4-.67,4.82-1l2.22-.6c.36-.76,1.84-3.81,3.08-4.87s3-2,4.68-1.67a2.82,2.82,0,0,1,2.21,3.58c-.74,2.27-4.86,3.52-7,3.51-.18,0-3.07-.34-3.05-.38l0,0c-.65.2-1.35.41-2.12.62-1.42.38-3,.8-4.81,1.13a50.25,50.25,0,0,1-5.81.81,36,36,0,0,1-6.56,0h-.08c.64.27,2.42,1.1,2.55,1.18,1.82,1.12,4.68,4.35,4.11,6.67a2.83,2.83,0,0,1-3.76,1.89C421.79,389.38,420.75,387.57,420.27,386.06Z" style="fill:#92E3A9"></path><path d="M424.71,343.78s2.63-1.21,2.8-1.26c2-.63,6.35-.66,7.73,1.3a2.83,2.83,0,0,1-1.06,4.07c-1.47.83-3.51.42-5-.22C427.49,346.92,424.71,343.78,424.71,343.78Z" style="fill:#92E3A9"></path><path d="M72.94,371.28c1-1.57,1.6-5.73,1.6-5.73s-2.86.45-3,.5c-2.05.59-5.66,2.95-5.73,5.34a2.83,2.83,0,0,0,3.13,2.82C70.59,374.08,72.07,372.62,72.94,371.28Z" style="fill:#92E3A9"></path><path d="M85.16,371.82c.55-1.71.08-5.58,0-5.89a50.45,50.45,0,0,0,6.57-1.23c1.26-.31,2.52-.67,3.77-1-.54.25-1,.49-1.1.53-1.82,1.11-4.68,4.34-4.11,6.66a2.82,2.82,0,0,0,3.76,1.89c1.59-.56,2.63-2.36,3.11-3.88s.16-4.85.06-5.73l1.45-.44c2.3-.72,4.6-1.45,6.88-2.09.8-.23,1.6-.43,2.4-.62-.49.22-.9.42-1,.46-1.82,1.11-4.68,4.34-4.11,6.66a2.82,2.82,0,0,0,3.76,1.89c1.59-.56,2.63-2.36,3.11-3.88s.19-4.53.08-5.57c.82-.18,1.65-.36,2.45-.49.56-.08,1.08-.2,1.64-.25l1.64-.18c1-.08,2.13-.16,3.16-.21l2.07-.09c-.8.22-2.36.68-2.49.73-2,.83-5.28,3.59-5.07,6a2.83,2.83,0,0,0,3.43,2.43c1.66-.31,3-1.94,3.67-3.36.77-1.58.91-5.32.93-5.79,1.13,0,2.23-.07,3.27-.08s1.82,0,2.66,0l.24-1.48c-.92,0-1.9,0-2.93.07s-2.38.09-3.64.17a29.44,29.44,0,0,0-1-3.48,20.53,20.53,0,0,0,3.81-4.2c1,.59,1.9,1.17,2.77,1.74.6.39,1.18.76,1.73,1.13l.26-1.56-1.23-.77c-1-.6-2-1.23-3.13-1.86.16-.43,1.5-3.94,1.39-5.7-.09-1.59-.65-3.59-2.06-4.53a2.84,2.84,0,0,0-4.11.91c-1.12,2.11.86,5.95,2.35,7.47.09.09,1.15,1,1.83,1.51l-1.34-.77c-.92-.52-1.84-1-2.84-1.54l-1.49-.72c-.49-.25-1-.46-1.56-.69-1.23-.51-2.5-1-3.78-1.41.45-.8,2-3.67,2.15-5.27s-.1-3.65-1.35-4.79a2.83,2.83,0,0,0-4.2.28c-1.43,1.92-.05,6,1.19,7.74.08.11,1.11,1.26,1.69,1.87-.78-.25-1.55-.51-2.35-.74-2.29-.68-4.63-1.29-7-1.91l-2.14-.58c.17-.29,2.09-3.66,2.26-5.44.15-1.59-.11-3.65-1.35-4.79a2.84,2.84,0,0,0-4.21.27c-1.42,1.92,0,6,1.2,7.74.09.13,1.58,1.78,2,2.18-1.56-.43-3.12-.87-4.64-1.37a48.35,48.35,0,0,1-6-2.38c.07-.13,2.1-3.64,2.27-5.47.15-1.59-.11-3.65-1.35-4.79a2.82,2.82,0,0,0-4.2.27c-1.43,1.92,0,6,1.19,7.74.09.14,1.69,1.91,2,2.21l-.35-.15a36.3,36.3,0,0,1-5.49-3.44c-1-.71-1.84-1.44-2.68-2.17.44-.61,2.44-3.45,2.78-5.08s.29-3.64-.82-4.9a2.82,2.82,0,0,0-4.21-.19c-1.63,1.75-.71,6,.34,7.82,0,.1.74,1.07,1.26,1.77-.38-.34-.77-.68-1.12-1-1.33-1.23-2.46-2.44-3.46-3.52-.56-.61-1.06-1.18-1.52-1.72.12-.83.57-4.19.12-5.76s-1.41-3.37-3-4a2.83,2.83,0,0,0-3.82,1.77c-.63,2.31,2.12,5.62,3.91,6.79.15.1,2.75,1.41,2.75,1.37v-.05c.43.53.9,1.09,1.42,1.69,1,1.1,2.09,2.34,3.4,3.6A48,48,0,0,0,83.62,332a36.67,36.67,0,0,0,5.49,3.6l.07,0c-.69-.12-2.63-.41-2.78-.41-2.13-.07-6.3,1-7.11,3.29a2.83,2.83,0,0,0,2.1,3.65c1.63.41,3.49-.52,4.73-1.52,1.4-1.13,3.15-4.62,3.29-4.9a51.38,51.38,0,0,0,6.15,2.61c1.23.43,2.48.83,3.73,1.21l-1.21-.17c-2.13-.07-6.3,1.05-7.11,3.3a2.83,2.83,0,0,0,2.1,3.65c1.64.4,3.5-.53,4.74-1.53s2.81-4,3.21-4.74l1.44.43c2.33.67,4.64,1.33,6.9,2.05.79.25,1.57.53,2.34.8l-1-.14c-2.13-.07-6.3,1-7.11,3.29a2.83,2.83,0,0,0,2.1,3.65c1.64.41,3.5-.52,4.74-1.52S113,345,113.51,344c.79.3,1.58.61,2.32.94.51.24,1,.43,1.5.7l1.47.75c.92.52,1.87,1,2.75,1.57l1.78,1.07c-.79-.26-2.34-.74-2.48-.77a11.08,11.08,0,0,0-5.51.59,3.26,3.26,0,0,0-.62-.06,2.82,2.82,0,0,0-2.93,3c.23,2.38,4,4.49,6.08,4.94.12,0,1.49.17,2.36.24l-1.55.1c-1.05.08-2.09.18-3.21.29l-1.64.21c-.55.07-1.12.2-1.69.29-1.3.25-2.61.57-3.93.91-.07-.91-.35-4.17-1.11-5.58s-2.1-3-3.77-3.25a2.83,2.83,0,0,0-3.35,2.55c-.13,2.39,3.27,5,5.27,5.8.12.05,1.61.44,2.44.63-.79.22-1.58.43-2.37.67-2.29.7-4.57,1.48-6.86,2.25l-2.1.7c0-.33-.28-4.2-1.12-5.79-.76-1.4-2.11-3-3.77-3.24a2.83,2.83,0,0,0-3.36,2.54c-.13,2.39,3.27,5,5.27,5.8.15.06,2.3.61,2.85.73-1.55.5-3.09,1-4.63,1.41a48.78,48.78,0,0,1-6.32,1.33c0-.15-.26-4.2-1.13-5.82-.75-1.4-2.1-3-3.77-3.25A2.83,2.83,0,0,0,77,358.85c-.13,2.39,3.27,5,5.27,5.8.15.06,2.46.66,2.89.73l-.37.07a36.39,36.39,0,0,1-6.48.16c-1.19-.06-2.33-.18-3.43-.33,0-.76.13-4.22-.49-5.77s-1.76-3.2-3.39-3.64A2.82,2.82,0,0,0,67.42,358c-.39,2.36,2.7,5.37,4.6,6.34.1.06,1.21.48,2,.78l-1.49-.22c-1.78-.3-3.39-.68-4.82-1-.81-.2-1.54-.4-2.22-.6-.36-.76-1.84-3.8-3.07-4.87s-3-2-4.69-1.67a2.83,2.83,0,0,0-2.21,3.59c.74,2.27,4.87,3.51,7,3.51.18,0,3.07-.34,3.05-.38l0-.05c.65.2,1.35.41,2.12.62,1.42.38,3,.8,4.82,1.14a49.76,49.76,0,0,0,5.8.81,37.86,37.86,0,0,0,6.56,0l.08,0c-.64.28-2.42,1.11-2.55,1.19-1.82,1.12-4.67,4.34-4.11,6.67a2.83,2.83,0,0,0,3.76,1.89C83.65,375.14,84.68,373.34,85.16,371.82Z" style="fill:#92E3A9"></path><path d="M80.72,329.54s-2.63-1.2-2.8-1.26c-2-.63-6.35-.65-7.73,1.3a2.84,2.84,0,0,0,1.06,4.08c1.47.82,3.51.42,5-.22C77.94,332.69,80.72,329.55,80.72,329.54Z" style="fill:#92E3A9"></path></g><g id="freepik--Lines--inject-164"><line x1="274.95" y1="117.46" x2="273.89" y2="118.54" style="fill:none;stroke:#263238;stroke-linecap:round;stroke-linejoin:round"></line><line x1="282.1" y1="110.48" x2="277.04" y2="115.64" style="fill:none;stroke:#263238;stroke-linecap:round;stroke-linejoin:round"></line><line x1="264.4" y1="105.19" x2="262.57" y2="110.1" style="fill:none;stroke:#263238;stroke-linecap:round;stroke-linejoin:round"></line><line x1="266.28" y1="100.18" x2="265.55" y2="102.14" style="fill:none;stroke:#263238;stroke-linecap:round;stroke-linejoin:round"></line><line x1="241.87" y1="108.95" x2="242.69" y2="110.33" style="fill:none;stroke:#263238;stroke-linecap:round;stroke-linejoin:round"></line><line x1="237.91" y1="102.51" x2="239.86" y2="105.79" style="fill:none;stroke:#263238;stroke-linecap:round;stroke-linejoin:round"></line><line x1="234.33" y1="119.25" x2="235.32" y2="119.66" style="fill:none;stroke:#263238;stroke-linecap:round;stroke-linejoin:round"></line><line x1="229.87" y1="117.41" x2="233.34" y2="118.84" style="fill:none;stroke:#263238;stroke-linecap:round;stroke-linejoin:round"></line><line x1="251.67" y1="102.37" x2="251.98" y2="107.04" style="fill:none;stroke:#263238;stroke-linecap:round;stroke-linejoin:round"></line></g><g id="freepik--character-2--inject-164"><path d="M296.45,197.19l-9.9,1.44s-11.69-34.9-12.05-39.21-6.29-23.2-7.37-26.8-3.24-8.45-3.78-10.79a1.88,1.88,0,0,0-2.52-1.62s-1-3-1.64-3-1.35.22-1.35,1c0,0-1.81-1.58-2.64-.75s-.37,2.79-.37,2.79-1.51,1.58-1.51,2.93.23,13.41.07,16.8.46,11.68,4.3,14.84,6.1,5,6.1,5,2.35,36.66,5.56,45.12,6.14,17.52,8.18,17.67,19.71-2.34,23.21-2.63a29.65,29.65,0,0,0,5.84-1Z" style="fill:#fff;stroke:#263238;stroke-linecap:round;stroke-linejoin:round"></path><path d="M260.83,120.21a23.13,23.13,0,0,0-.1,5.05C261,127,264,139.61,264,139.61" style="fill:none;stroke:#263238;stroke-linecap:round;stroke-linejoin:round"></path><path d="M257.84,118.23a11.75,11.75,0,0,0-.29,5.08c.51,2.46,2.66,15.58,2.66,15.58" style="fill:none;stroke:#263238;stroke-linecap:round;stroke-linejoin:round"></path><path d="M254.83,120.27s1.28,17.7,2,18.42" style="fill:none;stroke:#263238;stroke-linecap:round;stroke-linejoin:round"></path><path d="M269.34,158.88a10.33,10.33,0,0,1-3.49-6.66c-.3-4.1,1.75-7.18,1.64-7.59s-.41-4.61-.92-7.27a5.53,5.53,0,0,1,1.85-5.64c1.28-.9,1.64,1.12,1.74,3.79s2.25,10.15,2.25,10.15.93,5.43,1,7.89.1,4.21.1,4.21" style="fill:#fff;stroke:#263238;stroke-linecap:round;stroke-linejoin:round"></path><path d="M301.84,146.11s-6.47,17.62-8.27,21.76.18,7.73,1.8,8.63,4.31.18,4.31.18.9,6.66,5.76,7.74a13.66,13.66,0,0,0,8.63-.9s3.78,3.06,5.22,3.06,9.53.72,12.41-1.8,5.75-11,4.68-12.41-9.18,2-15.83-.9-13.13-9.53-14.93-13.31S301.84,146.11,301.84,146.11Z" style="fill:#263238;stroke:#263238;stroke-linecap:round;stroke-linejoin:round"></path><path d="M378.55,229.26l8.14,15s15.64,34.48,17.35,39,2.79,7.07,2.79,7.07-2.36,11.78-2.36,13.92.86,7.71.64,9,1.29,1.71,2.57.64,1.07-3.21,1.29-4.71a39.46,39.46,0,0,1,1.28-4.71s2.36,6.64,2.57,8.56a30.63,30.63,0,0,1,0,4.72s-4.07,1.92-4.07,3.21,1.29,1.5,2.57.64,4.93-3,5.79-4.5a32.44,32.44,0,0,0,2.57-6c.64-2.15-.22-17.78-.86-20.57s-8.78-37.27-11.57-46.26S397.4,224.11,397,223.47s-5.35-9.85-5.35-9.85Z" style="fill:#fff;stroke:#263238;stroke-linecap:round;stroke-linejoin:round"></path><path d="M309.65,392,309,407.66s-7.07,8.57-9,10.28-9,5.79-9,7.93,2.57,3.64,10.92,4.28,14.35-3.64,17.56-5.78,8.14-1.72,9.64-4.29-1.5-13.06-1.5-15.2-1.07-10.28-1.07-10.28Z" style="fill:#fff;stroke:#263238;stroke-linecap:round;stroke-linejoin:round"></path><path d="M300,417.94c-1.93,1.72-9,5.79-9,7.93s2.57,3.64,10.92,4.28,14.35-3.64,17.56-5.78,8.14-1.72,9.64-4.29c1.06-1.81-.12-7.54-.9-11.52-3.13,3-9.81,4.67-9.81,4.67a16.33,16.33,0,0,0-3-5.78c-2.35-3-6.42.21-6.42.21S301.94,416.23,300,417.94Z" style="fill:#fff;stroke:#263238;stroke-linecap:round;stroke-linejoin:round"></path><polygon points="305.3 289.01 308.37 387.31 327.64 388.6 339.57 306.58 357.42 392.45 379.69 389.03 376.63 290.3 305.3 289.01" style="fill:#263238;stroke:#263238;stroke-linecap:round;stroke-linejoin:round"></polygon><path d="M306,381.32s-.21,6.42.86,9.85,5.14,5.14,10.92,5.78,10.07,0,10.71-1.93,1.93-9.21,1.71-10.28-3.21,1.07-10.06.22S307.72,378.32,306,381.32Z" style="fill:#8c8c8c;stroke:#263238;stroke-linecap:round;stroke-linejoin:round"></path><path d="M361.48,395.67s3.22,17.35,4.29,22.27,2.35,17.35,8.57,20.56,12.63,1.93,13.28-7.71-8.57-18.63-9.43-21.63-1.5-16.06-1.5-16.06Z" style="fill:#fff;stroke:#263238;stroke-linecap:round;stroke-linejoin:round"></path><path d="M370.05,407.88a22.61,22.61,0,0,0-2.57,6.21l-2.76-1.35c.42,2.17.79,4,1,5.2,1.07,4.93,2.35,17.35,8.57,20.56s12.63,1.93,13.28-7.71-8.57-18.63-9.43-21.63C378.19,409.16,372,404.66,370.05,407.88Z" style="fill:#fff;stroke:#263238;stroke-linecap:round;stroke-linejoin:round"></path><path d="M354.2,386.67s.22,1.07.64,4.07-.42,6,1.72,7.28,13.49,1.29,17.35.43,7.71-3.21,8.14-5.35,1.28-5.79.42-7.71-2.14-1.72-3.42-1.29-3,3-12.43,2.36S355.27,383.89,354.2,386.67Z" style="fill:#8c8c8c;stroke:#263238;stroke-linecap:round;stroke-linejoin:round"></path><path d="M322.35,185.5a13.29,13.29,0,0,0-9.72.18c-5.21,2.16-18.52,10.25-18.52,10.25l11.15,25.36s-3.06,69.6-3.42,70.14,23.38,11.33,40.83,10.62,37.95-8.1,37.95-8.1l-3.42-59.53L397,213.55s-8.64-13.66-15.83-18.88S361,184.42,356,183.7,322.35,185.5,322.35,185.5Z" style="fill:#92E3A9;stroke:#263238;stroke-linecap:round;stroke-linejoin:round"></path><path d="M352.15,232.47c.29-7.73-4.22-14.2-10.07-14.45-4.69-.21-8.8,3.64-10.41,9.14-1.19-5.62-5-9.81-9.69-10-5.85-.25-10.83,5.81-11.12,13.54-.31,8.37,6.2,15.42,10.24,21.64,2.94,4.53,5.82,9.13,8.82,13.6l7.82-9.82C343,249.5,351.79,242.21,352.15,232.47Z" style="fill:#fff"></path><path d="M344.92,235.65c.19-5-2.74-9.23-6.55-9.39-3-.13-5.71,2.36-6.75,5.94-.78-3.66-3.26-6.38-6.3-6.51-3.8-.16-7,3.78-7.22,8.8-.2,5.44,4,10,6.65,14.06,1.91,2.94,3.78,5.93,5.73,8.83l5.07-6.38C339,246.71,344.69,242,344.92,235.65Z" style="fill:#92E3A9"></path><path d="M340,237.8c.12-3.19-1.74-5.86-4.15-6-1.93-.09-3.63,1.5-4.29,3.77-.5-2.32-2.07-4.05-4-4.13-2.41-.1-4.47,2.4-4.58,5.58-.13,3.45,2.55,6.36,4.22,8.93,1.21,1.87,2.4,3.76,3.63,5.6,1.08-1.35,2.15-2.7,3.23-4C336.25,244.82,339.87,241.81,340,237.8Z" style="fill:#263238"></path><line x1="377.2" y1="234.42" x2="363.35" y2="216.79" style="fill:none;stroke:#263238;stroke-linecap:round;stroke-linejoin:round"></line><line x1="305.26" y1="221.29" x2="305.08" y2="206.18" style="fill:none;stroke:#263238;stroke-linecap:round;stroke-linejoin:round"></line><path d="M298.78,133.16s2.34,17.62,2.52,20-1.8,5,.18,9.89,10.79,13.13,14.93,14.75a14.44,14.44,0,0,0,8.63.18s.36,4.86.36,6.12-3,1.44-3,1.44.72,21.76,8.81,21.58,22.12-23,22.12-23l-2.88-14.21s10.26-12.59,9.72-19.25-14.75-18.34-21.95-21.4-16.9-9.35-25.36-7.55-11.51,3.23-12.77,4.67S298.07,131.54,298.78,133.16Z" style="fill:#fff;stroke:#263238;stroke-linecap:round;stroke-linejoin:round"></path><path d="M311,149.71l.17,1.43s-3.95,1.26-2,3.78a2.22,2.22,0,0,0,3.77.18" style="fill:none;stroke:#263238;stroke-linecap:round;stroke-linejoin:round"></path><path d="M310.66,160.86a16.32,16.32,0,0,0,7.73-1.08,9.93,9.93,0,0,0,5-4.32s-1.44,7.37-4.32,9.35-5-1.8-5.94-2.33S310.66,160.86,310.66,160.86Z" style="fill:#fff;stroke:#263238;stroke-linecap:round;stroke-linejoin:round"></path><path d="M308.14,147.64c0,1.44-.69,2.6-1.53,2.6s-1.53-1.16-1.53-2.6.68-2.61,1.53-2.61S308.14,146.2,308.14,147.64Z" style="fill:#263238"></path><path d="M319.56,146.65c0,1.44-.69,2.61-1.53,2.61s-1.53-1.17-1.53-2.61S317.19,144,318,144,319.56,145.21,319.56,146.65Z" style="fill:#263238"></path><path d="M301.84,144a5.2,5.2,0,0,1,6.12-3.06" style="fill:none;stroke:#263238;stroke-linecap:round;stroke-linejoin:round"></path><path d="M313.71,139.81s4.5-2,8.46.18" style="fill:none;stroke:#263238;stroke-linecap:round;stroke-linejoin:round"></path><polygon points="325.04 177.94 332.06 174.88 325.4 184.06 325.04 177.94" style="fill:#263238;stroke:#263238;stroke-linecap:round;stroke-linejoin:round"></polygon><path d="M331.7,102.58s-2.52-2.16-12.05-.9S295,110.86,293,121.29s3.42,17.62,5,17.08,3.59-5.75,3.59-5.75,1.8,5,4,4,8.09-11.52,8.09-11.52S317.49,138,321.09,138s6.83-4.13,6.83-4.13,2.34,5.93,3.6,5.93,3.42-1.44,3.42-1.44,4.31,9.18,5.75,8.64,4-5.22,7.38-5.58,6.65,9.35,4.67,13.13-7.73,6.66-7.73,6.66-3.78,24.28-.9,26.44,6.29-.9,6.29-.9,5.58,3.23,7.38,2.33,2.7-4,2.7-4,10.25,3.23,13.13,1.26,3.95-10.26,3.95-10.26,4.14,2,6.84-1.61.36-12.23.36-12.23,2.52-.54,2.52-4.14-10.26-20.51-16-28.6-16.37-23.74-25.36-26.26S331.7,102.58,331.7,102.58Z" style="fill:#263238;stroke:#263238;stroke-linecap:round;stroke-linejoin:round"></path><path d="M331.7,102.58s8.09,3.06,13.85,14.93,5,25,5,25,2,2,1.26-5.93-3-18.17-7.55-25.18S334,101.14,331.7,102.58Z" style="fill:#fff;stroke:#263238;stroke-linecap:round;stroke-linejoin:round"></path></g><g id="freepik--character-1--inject-164"><path d="M191.22,133.85s3.62,12.76,4.83,16.72,4.14,11,2.93,17.58S193,183,187.6,185.21a22.06,22.06,0,0,1-11.37,1v6.2l-22.93-7.06s-1-10.86-3.27-12.24-6.38-3.45-6.38-3.45-2.76.52-6.55-5.86,1.73-11,4.14-11.55,8.79,0,10.51-1.38,2.42-8.27,5.52-16,9.13-16.72,17.41-15.69S191.22,133.85,191.22,133.85Z" style="fill:#fff;stroke:#263238;stroke-linecap:round;stroke-linejoin:round"></path><path d="M188.81,155.57a3.57,3.57,0,0,1,.52,3.27c-.69,1.73-2.93,3.11-4.83,1.55" style="fill:none;stroke:#263238;stroke-linecap:round;stroke-linejoin:round"></path><path d="M190.88,164a9.37,9.37,0,0,1-6.55,1.73,14.25,14.25,0,0,1-6.72-2.24s3.1,7.06,6.72,6.89S190.88,164,190.88,164Z" style="fill:#fff;stroke:#263238;stroke-linecap:round;stroke-linejoin:round"></path><path d="M179.45,152.42c.18,1.4-.45,2.63-1.41,2.75s-1.88-.9-2.06-2.3.45-2.63,1.41-2.76S179.27,151,179.45,152.42Z" style="fill:#263238"></path><ellipse cx="191.01" cy="149.79" rx="1.75" ry="2.55" transform="translate(-17.65 25.77) rotate(-7.38)" style="fill:#263238"></ellipse><path d="M170,148.33a9.11,9.11,0,0,1,7.59-4.48" style="fill:none;stroke:#263238;stroke-linecap:round;stroke-linejoin:round"></path><path d="M186.05,142.47s3.1-2.41,6.38-.52" style="fill:none;stroke:#263238;stroke-linecap:round;stroke-linejoin:round"></path><path d="M176.23,186.25a13,13,0,0,1-5.69-2.07l-2.93-1.9,6,9.14,2.59,1Z" style="fill:#263238;stroke:#263238;stroke-linecap:round;stroke-linejoin:round"></path><path d="M172.26,121.61s-2.75,2.93-1.38,10.86-2.24,11.9-4.65,12.07-4.83-5.86-4.83-5.86.52,5.34-.68,6.2a11.46,11.46,0,0,1-2.07,1.21,2.69,2.69,0,0,1,.51,3.79c-1.55,2.24-2.93,2.07-3.27,4.14s1.72,2.93.34,4.65-2.41,2.07-3.79,1.38-.34-2.41-5.86-4.65-8.62,4.48-8.1,7.24,4.48,6.72,5.17,7.06-2.67,1.24-7.58-2.58c-11.42-8.89-7.76-11.55-10.86-16.21s-2.41-17.58.52-23.26,14.13-13.27,14.13-13.27,9.65-9.48,21.72-10.17a38.63,38.63,0,0,1,21,5s7.42.69,12.41,9.66,3.45,16,1.9,17.06-4.48-2.41-4.48-2.41-1.21,4.82-3.62,4.82-5.52-3.79-6.72-7.41S174.68,120.92,172.26,121.61Z" style="fill:#263238;stroke:#263238;stroke-linecap:round;stroke-linejoin:round"></path><path d="M150.55,113s11.2-6,20,2.06" style="fill:none;stroke:#8c8c8c;stroke-linecap:round;stroke-linejoin:round"></path><path d="M142.79,123.85s-5.34,11.38-2.76,17.07,7.59,7.41,7.93,5.17l.35-2.24s.68,2.07,4.13,2.41" style="fill:none;stroke:#8c8c8c;stroke-linecap:round;stroke-linejoin:round"></path><path d="M179.65,192.2s-26.13-8.86-29.31-8.63-6.14,6.58-5,7.27,22.95,5.45,25.45,5.9,5.9,1.37,6.81.69S179.65,192.2,179.65,192.2Z" style="fill:#92E3A9;stroke:#263238;stroke-linecap:round;stroke-linejoin:round"></path><path d="M195.22,407l9.93,8.11S217.87,419.47,218,421s0,4.62-.7,5.45-9.79,2.24-17.89,2.38-16.78-2.1-21.53-2-6.15-.69-6.43-2.51.14-10.77.56-11.61S193.4,406.74,195.22,407Z" style="fill:#fff;stroke:#263238;stroke-linecap:round;stroke-linejoin:round"></path><path d="M217.31,426.45a3.49,3.49,0,0,0,.53-1.51,29.24,29.24,0,0,1-5.84,1c-3.22.14-14.26,2.23-25.31-.84-8.8-2.46-13.69-2.06-15.31-1.8a8.65,8.65,0,0,0,.08,1.1c.28,1.82,1.67,2.65,6.43,2.51s13.42,2.1,21.53,2S216.61,427.29,217.31,426.45Z" style="fill:#fff;stroke:#263238;stroke-linecap:round;stroke-linejoin:round"></path><path d="M108.91,403.89s2.69,8.71,3.72,9.93,7.76,8.38,9.4,9.61-.61,2.86-1.84,3.68-10.83,0-14.92-.41-14.11-8-17-10.22-4.29-1.64-4.09-4.29,5.24-14.43,5.24-14.43Z" style="fill:#fff;stroke:#263238;stroke-linecap:round;stroke-linejoin:round"></path><path d="M114.67,425.47c-2.66-.2-11-.81-15.13-4.7-3.51-3.34-12.47-8.95-14.91-10.45a10.68,10.68,0,0,0-.42,1.87c-.2,2.65,1.23,2,4.09,4.29s12.88,9.81,17,10.22,13.69,1.23,14.92.41a10.58,10.58,0,0,0,1.63-1.28C119.89,425.76,116.5,425.62,114.67,425.47Z" style="fill:#fff;stroke:#263238;stroke-linecap:round;stroke-linejoin:round"></path><path d="M130.49,284.71l-9.06,55.7a15.74,15.74,0,0,0-1.86,3.2,13.76,13.76,0,0,0-.8,4.53s-12.53,17.33-14.13,20-10.93,21.1-10.93,21.1-2.93,0-3.19,1.6-1.07,6.93-1.07,6.93,6.4,2.13,10.66,3.46,8.8,2.67,8.8,2.67,1.86-3.47,2.66-5.33,0-4,.8-4.53,40.78-41.62,41.85-45.09,6.39-29.31,6.39-29.31l6.93,39.17,4.53,45.89s-1.86,1.33-1.86,2.93,1.6,6.66,1.6,6.66a98.78,98.78,0,0,1,10.39-2.66c4.53-.8,13.59-3.47,13.59-3.47s1.33-3.46.27-4.53-2.67-2.13-2.67-2.93-.8-4.53-.53-5.33,3.47-59.48,3.47-59.48L197.39,293l-67.16-12.26Z" style="fill:#263238;stroke:#263238;stroke-linecap:round;stroke-linejoin:round"></path><path d="M192.26,278.5l5.59,5.15s3.53,9,4.56,9.72,3.53.58,3.53.58,4.86-3.53,8.1-4.41,6.33-1.91,6.92-3.53-.74-4.12-1.33-5.45a5.81,5.81,0,0,0-4.86-3.68c-2.79-.14-7.21-.59-7.21-.59L206,274.24c-.66,0-8.32-10.3-8.32-10.3" style="fill:#fff;stroke:#263238;stroke-linecap:round;stroke-linejoin:round"></path><path d="M218.13,283.55s-3.1.21-2.48,1.45,2.69,6.82,4.13,7.23,3.72-1.24,3.72-2.69-1.65-5-2.48-6.19S218.13,283.55,218.13,283.55Z" style="fill:#fff;stroke:#263238;stroke-linecap:round;stroke-linejoin:round"></path><path d="M219.78,292.23s-3.83,2.46-4.71,2.61-4.56-6.48-4.12-7.8,4.7-2,4.7-2Z" style="fill:#fff;stroke:#263238;stroke-linecap:round;stroke-linejoin:round"></path><path d="M215.07,294.84s-3.24,1.62-4.27,1.62-3.53-4.42-4-5.89.14-2.06,1.17-2.65A10.79,10.79,0,0,1,211,287S214,294.69,215.07,294.84Z" style="fill:#fff;stroke:#263238;stroke-linecap:round;stroke-linejoin:round"></path><path d="M206.24,288.51s-2.21.74-2.65,1.77,1.18,4.41,1.91,5.59,3.53.88,3.68.14l.15-.73Z" style="fill:#fff;stroke:#263238;stroke-linecap:round;stroke-linejoin:round"></path><path d="M204.47,274.68c.66,0,10.73-2.2,12.05-2.2s4.6,5.26,4.6,5.26,5.48,3.95,5.48,5.48-2.19,3.07-4.38,2.63-6.14-3.94-6.14-3.94-4.6,3.06-5.7,3.06-3.94-1.75-3.94-1.75" style="fill:#fff;stroke:#263238;stroke-linecap:round;stroke-linejoin:round"></path><path d="M145.34,190.84s-3.41,13.4-6.82,33.17-3.86,26.58-3.86,26.58L125.8,286s16.81,11.13,36.35,13.4a103.06,103.06,0,0,0,37-2.95s.68-35.45,1.13-46.35S201,224,201,224s-1.37-15.68-9.77-21.36-13.64-5.22-13.64-5.22Z" style="fill:#92E3A9;stroke:#263238;stroke-linecap:round;stroke-linejoin:round"></path><path d="M159,197.2l53.27-3.75,25.16-44.52s3.92-15.15,4.44-17,4.7-8.1,5.75-9.67,2.87-5.1,3.76-5.54l.89-.45s2.08-2.38,3.12-1.64.15,3.27.15,3.27,1.34-.44,1.64,1.49-1.19,7.73-1.19,7.73c-.15-.23.33-.13,1.62-1.08s2.23.69,1.18,2.62-3.55,6.34-4.29,7.68-.89,8-1.64,11.45-2.37,6.24-4,7.58-4.61,3.42-4.61,3.42-8.64,34.47-11.88,42.49-5,13.45-7.36,14.74-7.33,3.4-18.45,5.21-31,7.63-40.21,5.56" style="fill:#fff;stroke:#263238;stroke-linecap:round;stroke-linejoin:round"></path><path d="M256,127.14s-3,4.43-3.5,5.49-1.32,2.49-1.32,2.49" style="fill:none;stroke:#263238;stroke-linecap:round;stroke-linejoin:round"></path><path d="M255.51,117.92s-3.18,6.69-3.71,7.74-2.89,5.13-3.41,7.1" style="fill:none;stroke:#263238;stroke-linecap:round;stroke-linejoin:round"></path><path d="M252.24,116.29s-3.46,6.48-4.64,9-2.89,6.57-2.89,6.57" style="fill:none;stroke:#263238;stroke-linecap:round;stroke-linejoin:round"></path><path d="M155.12,198.68a21.74,21.74,0,0,1,9.8-4.1c6.38-1.14,36.93-.23,36.93-.23l2.06,29.87s-18.7,6.38-30.1,8.66S157.4,234,157.4,234" style="fill:#92E3A9;stroke:#263238;stroke-linecap:round;stroke-linejoin:round"></path><path d="M184.75,230.37s-20.29,14.82-34,18.47" style="fill:none;stroke:#263238;stroke-linecap:round;stroke-linejoin:round"></path><path d="M176.32,241.55s-7.07,12.76-22.12,16.64" style="fill:none;stroke:#263238;stroke-linecap:round;stroke-linejoin:round"></path></g></svg>
